<svg width="845" height="200" viewBox="0 0 845 200" fill="none" xmlns="http://www.w3.org/2000/svg">
<path d="M46.4538 37.8076C52.7999 37.8076 58.1307 32.4769 58.1307 26.1307C58.1307 19.7846 52.7999 14.4538 46.4538 14.4538C40.1076 14.4538 34.7769 19.7846 34.7769 26.1307C34.7769 32.4769 40.1076 37.8076 46.4538 37.8076ZM40.1076 120.308C40.1076 122.084 41.6307 123.608 43.4076 123.608C45.1846 123.608 46.7076 122.084 46.7076 120.308C46.7076 118.531 45.1846 117.008 43.4076 117.008C41.6307 117.008 40.1076 118.531 40.1076 120.308ZM63.4615 52.5307C66.2538 52.5307 68.2845 50.2461 68.2845 47.7076C68.2845 44.9153 65.9999 42.8846 63.4615 42.8846C60.6692 42.8846 58.6384 45.1692 58.6384 47.7076C58.6384 50.2461 60.6692 52.5307 63.4615 52.5307ZM25.1307 96.446C31.4769 96.446 36.8076 91.1153 36.8076 84.7691C36.8076 78.423 31.4769 73.0922 25.1307 73.0922C18.7846 73.0922 13.4538 78.423 13.4538 84.7691C13.7077 91.1153 18.7846 96.446 25.1307 96.446ZM8.37691 69.0307C11.1692 69.0307 13.2 66.7461 13.2 64.2076C13.2 61.4153 10.9154 59.3845 8.37691 59.3845C5.58461 59.3845 3.55384 61.6692 3.55384 64.2076C3.55384 66.9999 5.58461 69.0307 8.37691 69.0307ZM6.59999 79.6922C6.59999 77.9153 5.07692 76.3922 3.3 76.3922C1.52308 76.3922 0 77.9153 0 79.6922C0 81.4691 1.52308 82.9922 3.3 82.9922C5.07692 82.9922 6.59999 81.4691 6.59999 79.6922ZM22.0846 52.2769C26.6538 52.2769 30.2077 48.723 30.2077 44.1538C30.2077 39.5846 26.6538 36.0307 22.0846 36.0307C17.5154 36.0307 13.9615 39.5846 13.9615 44.1538C13.9615 48.723 17.5154 52.2769 22.0846 52.2769ZM120.831 7.59999C122.608 7.59999 124.131 6.07692 124.131 4.3C124.131 2.52308 122.608 1 120.831 1C119.054 1 117.531 2.52308 117.531 4.3C117.531 6.07692 119.054 7.59999 120.831 7.59999ZM31.9846 119.038C31.9846 111.169 25.6384 104.823 17.7692 104.823C9.89999 104.823 3.55384 111.169 3.55384 119.038C3.55384 126.908 9.89999 133.254 17.7692 133.254C25.6384 133.254 31.9846 126.908 31.9846 119.038ZM174.392 59.1307C180.738 59.1307 186.069 53.7999 186.069 47.4538C186.069 41.1076 180.738 35.7769 174.392 35.7769C168.046 35.7769 162.715 41.1076 162.715 47.4538C162.715 53.7999 167.792 59.1307 174.392 59.1307ZM148.246 139.346C148.246 143.915 151.8 147.469 156.369 147.469C160.938 147.469 164.492 143.915 164.492 139.346C164.492 134.777 160.938 131.223 156.369 131.223C151.8 131.223 148.246 134.777 148.246 139.346ZM156.369 31.2077C160.938 31.2077 164.492 27.6538 164.492 23.0846C164.492 18.5154 160.938 14.9615 156.369 14.9615C151.8 14.9615 148.246 18.5154 148.246 23.0846C148.246 27.6538 151.8 31.2077 156.369 31.2077ZM138.346 52.2769C142.915 52.2769 146.469 48.723 146.469 44.1538C146.469 39.5846 142.915 36.0307 138.346 36.0307C133.777 36.0307 130.223 39.5846 130.223 44.1538C130.223 48.723 133.777 52.2769 138.346 52.2769ZM167.538 80.9614C167.538 88.8307 173.884 95.1768 181.754 95.1768C189.623 95.1768 195.969 88.8307 195.969 80.9614C195.969 73.0922 189.623 66.7461 181.754 66.7461C173.884 66.7461 167.538 73.0922 167.538 80.9614ZM159.415 79.6922C159.415 77.9153 157.892 76.3922 156.115 76.3922C154.338 76.3922 152.815 77.9153 152.815 79.6922C152.815 81.4691 154.338 82.9922 156.115 82.9922C157.892 82.9922 159.415 81.4691 159.415 79.6922ZM136.061 13.9461C138.854 13.9461 140.884 11.6615 140.884 9.12307C140.884 6.58461 138.6 4.3 136.061 4.3C133.269 4.3 131.238 6.58461 131.238 9.12307C131.238 11.6615 133.523 13.9461 136.061 13.9461ZM151.292 69.0307C154.084 69.0307 156.115 66.7461 156.115 64.2076C156.115 61.4153 153.831 59.3845 151.292 59.3845C148.754 59.3845 146.469 61.6692 146.469 64.2076C146.469 66.9999 148.754 69.0307 151.292 69.0307ZM51.2769 60.6538C51.2769 56.0845 47.723 52.5307 43.1538 52.5307C38.5846 52.5307 35.0307 56.0845 35.0307 60.6538C35.0307 65.223 38.5846 68.7768 43.1538 68.7768C47.723 68.7768 51.2769 65.223 51.2769 60.6538ZM136.061 147.469C133.269 147.469 131.238 149.754 131.238 152.292C131.238 155.084 133.523 157.115 136.061 157.115C138.854 157.115 140.884 154.831 140.884 152.292C140.884 149.754 138.854 147.469 136.061 147.469ZM119.561 167.015C111.692 167.015 105.346 173.361 105.346 181.231C105.346 189.1 111.692 195.446 119.561 195.446C127.431 195.446 133.777 189.1 133.777 181.231C133.777 173.361 127.431 167.015 119.561 167.015ZM153.069 162.192C146.723 162.192 141.392 167.523 141.392 173.869C141.392 180.215 146.723 185.546 153.069 185.546C159.415 185.546 164.746 180.215 164.746 173.869C164.746 167.523 159.415 162.192 153.069 162.192ZM117.531 157.115C117.531 158.892 119.054 160.415 120.831 160.415C122.608 160.415 124.131 158.892 124.131 157.115C124.131 155.338 122.608 153.815 120.831 153.815C119.054 154.069 117.531 155.338 117.531 157.115ZM196.223 117.008C194.446 117.008 192.923 118.531 192.923 120.308C192.923 122.084 194.446 123.608 196.223 123.608C198 123.608 199.523 122.084 199.523 120.308C199.523 118.531 197.746 117.008 196.223 117.008ZM191.146 130.969C188.354 130.969 186.323 133.254 186.323 135.792C186.323 138.584 188.607 140.615 191.146 140.615C193.938 140.615 195.969 138.331 195.969 135.792C195.969 133 193.938 130.969 191.146 130.969ZM114.231 37.8076C120.577 37.8076 125.908 32.4769 125.908 26.1307C125.908 19.7846 120.577 14.4538 114.231 14.4538C107.884 14.4538 102.554 19.7846 102.554 26.1307C102.554 32.4769 107.884 37.8076 114.231 37.8076ZM174.392 103.554C168.046 103.554 162.715 108.884 162.715 115.231C162.715 121.577 168.046 126.908 174.392 126.908C180.738 126.908 186.069 121.577 186.069 115.231C185.815 108.884 180.738 103.554 174.392 103.554ZM25.1307 140.869C18.7846 140.869 13.4538 146.2 13.4538 152.546C13.4538 158.892 18.7846 164.223 25.1307 164.223C31.4769 164.223 36.8076 158.892 36.8076 152.546C36.8076 146.2 31.7307 140.869 25.1307 140.869ZM177.438 147.723C172.869 147.723 169.315 151.277 169.315 155.846C169.315 160.415 172.869 163.969 177.438 163.969C182.007 163.969 185.561 160.415 185.561 155.846C185.561 151.277 182.007 147.723 177.438 147.723ZM48.2307 130.969C45.4384 130.969 43.4076 133.254 43.4076 135.792C43.4076 138.584 45.6923 140.615 48.2307 140.615C50.7692 140.615 53.0538 138.331 53.0538 135.792C53.0538 133 50.7692 130.969 48.2307 130.969ZM61.1768 147.723C56.6076 147.723 53.0538 151.277 53.0538 155.846C53.0538 160.415 56.6076 163.969 61.1768 163.969C65.7461 163.969 69.2999 160.415 69.2999 155.846C69.2999 151.277 65.7461 147.723 61.1768 147.723ZM63.4615 186.054C60.6692 186.054 58.6384 188.338 58.6384 190.877C58.6384 193.415 60.923 195.7 63.4615 195.7C66.2538 195.7 68.2845 193.415 68.2845 190.877C68.2845 188.338 65.9999 186.054 63.4615 186.054ZM43.1538 168.792C38.5846 168.792 35.0307 172.346 35.0307 176.915C35.0307 181.484 38.5846 185.038 43.1538 185.038C47.723 185.038 51.2769 181.484 51.2769 176.915C51.2769 172.346 47.723 168.792 43.1538 168.792ZM75.6461 42.8846C75.6461 44.6615 77.1691 46.1846 78.9461 46.1846C80.723 46.1846 82.246 44.6615 82.246 42.8846C82.246 41.1076 80.723 39.5846 78.9461 39.5846C76.9153 39.5846 75.6461 41.1076 75.6461 42.8846ZM94.1768 18.5154C94.1768 10.6461 87.8307 4.3 79.9614 4.3C72.0922 4.3 65.7461 10.6461 65.7461 18.5154C65.7461 26.3846 72.0922 32.7307 79.9614 32.7307C87.8307 32.9846 94.1768 26.6384 94.1768 18.5154ZM78.6922 192.4C76.9153 192.4 75.3922 193.923 75.3922 195.7C75.3922 197.477 76.9153 199 78.6922 199C80.4691 199 81.9922 197.477 81.9922 195.7C81.9922 193.923 80.4691 192.4 78.6922 192.4ZM85.2922 162.192C78.9461 162.192 73.6153 167.523 73.6153 173.869C73.6153 180.215 78.9461 185.546 85.2922 185.546C91.6383 185.546 96.9691 180.215 96.9691 173.869C96.9691 167.523 91.6383 162.192 85.2922 162.192Z" fill="#4F46E5"/>
<path d="M290.27 42.7565C289.18 42.5748 288.271 42.0298 287.544 41.1215C286.818 40.2131 286.454 39.214 286.454 38.1239V27.7688C286.454 26.4063 286.999 25.18 288.089 24.09C289.27 23.1817 290.587 22.8637 292.041 23.1363C302.759 24.9529 311.843 29.7218 319.291 37.4427C323.106 41.4394 326.195 45.9811 328.556 51.0679C328.92 51.7037 329.079 52.4304 329.033 53.2479C328.988 54.0654 328.738 54.8375 328.284 55.5642C327.83 56.2909 327.262 56.8586 326.581 57.2673C325.899 57.6761 325.15 57.8805 324.332 57.8805H312.751C311.934 57.8805 311.161 57.6761 310.435 57.2673C309.708 56.8586 309.118 56.2909 308.664 55.5642C307.392 53.6566 306.211 52.1579 305.121 51.0679C301.033 46.8895 296.083 44.119 290.27 42.7565ZM276.372 24.09C277.462 25.18 278.007 26.4063 278.007 27.7688V38.1239C278.007 39.214 277.644 40.2131 276.917 41.1215C276.19 42.0298 275.282 42.5748 274.192 42.7565C268.378 44.119 263.428 46.8895 259.34 51.0679C253.709 57.1538 250.893 64.7612 250.893 73.89C250.893 83.0189 253.709 90.6263 259.34 96.7122C263.246 100.891 268.197 103.661 274.192 105.024C275.282 105.205 276.19 105.75 276.917 106.659C277.644 107.567 278.007 108.566 278.007 109.656V120.011C278.007 121.465 277.416 122.691 276.236 123.69C275.327 124.417 274.328 124.78 273.238 124.78H272.421C261.52 122.782 252.437 117.967 245.17 110.337C235.723 100.618 231 88.469 231 73.89C231 59.3111 235.723 47.162 245.17 37.4427C252.528 29.7218 261.611 24.9529 272.421 23.1363C273.874 22.8637 275.191 23.1817 276.372 24.09ZM333.325 71.0969C333.416 71.7327 333.461 72.6865 333.461 73.9582C333.461 75.9565 333.325 78.2728 333.053 80.907C331.69 92.443 327.103 102.253 319.291 110.337C311.843 118.058 302.759 122.873 292.041 124.78H291.223C290.133 124.78 289.089 124.417 288.089 123.69C286.999 122.6 286.454 121.374 286.454 120.011V109.656C286.454 108.566 286.818 107.567 287.544 106.659C288.271 105.75 289.18 105.205 290.27 105.024C296.265 103.661 301.215 100.891 305.121 96.7122C308.3 93.3513 310.571 89.4909 311.934 85.1308H283.048C281.686 85.1308 280.55 84.6766 279.642 83.7683C278.734 82.86 278.279 81.7245 278.279 80.362V70.6881C278.279 69.4164 278.734 68.3037 279.642 67.35C280.55 66.3962 281.686 65.9193 283.048 65.9193H328.556C329.828 65.9193 330.918 66.3508 331.826 67.2137C332.735 68.0766 333.234 69.1439 333.325 70.4156V71.0969ZM390.973 24.09C392.063 24.9984 392.608 26.2246 392.608 27.7688V37.9877C392.608 39.1685 392.268 40.1904 391.586 41.0534C390.905 41.9163 389.974 42.484 388.793 42.7565C382.98 43.9374 378.029 46.7078 373.942 51.0679C368.401 56.8813 365.63 64.4432 365.63 73.7538C365.63 83.0643 368.401 90.6717 373.942 96.576C378.029 100.845 382.98 103.57 388.793 104.751C389.974 105.024 390.905 105.591 391.586 106.454C392.268 107.317 392.608 108.339 392.608 109.52V119.739C392.608 121.192 392.063 122.418 390.973 123.418C389.974 124.144 388.929 124.508 387.839 124.508H387.022C376.485 122.782 367.447 118.013 359.908 110.201C350.461 100.482 345.738 88.3782 345.738 73.89C345.738 59.4019 350.461 47.2074 359.908 37.3064C367.265 29.6763 376.303 24.9529 387.022 23.1363C388.475 22.8637 389.792 23.1817 390.973 24.09ZM433.756 37.3064C443.203 47.2074 447.926 59.4019 447.926 73.89C447.926 88.3782 443.203 100.482 433.756 110.201C426.217 118.013 417.179 122.782 406.642 124.508H405.825C404.735 124.508 403.69 124.144 402.691 123.418C401.601 122.418 401.056 121.192 401.056 119.739V109.52C401.056 108.339 401.396 107.317 402.078 106.454C402.759 105.591 403.69 105.024 404.871 104.751C410.684 103.57 415.635 100.845 419.722 96.576C425.263 90.6717 428.034 83.0643 428.034 73.7538C428.034 64.4432 425.263 56.8813 419.722 51.0679C415.635 46.7078 410.684 43.9374 404.871 42.7565C403.69 42.484 402.759 41.9163 402.078 41.0534C401.396 40.1904 401.056 39.1685 401.056 37.9877V27.7688C401.056 26.2246 401.624 24.9984 402.759 24.09C403.894 23.1817 405.189 22.8637 406.642 23.1363C417.361 24.9529 426.399 29.6763 433.756 37.3064ZM629.032 25.0438C629.941 26.3155 630.168 27.7234 629.714 29.2676L600.964 121.51C600.692 122.509 600.124 123.327 599.261 123.963C598.398 124.598 597.422 124.916 596.332 124.916H584.478C583.479 124.916 582.548 124.598 581.685 123.963C580.822 123.327 580.254 122.555 579.982 121.646L559.544 58.4255L539.242 121.646C538.879 122.645 538.289 123.44 537.471 124.031C536.654 124.621 535.7 124.916 534.61 124.916H522.756C521.121 124.916 519.804 124.28 518.805 123.009C517.896 121.465 517.715 120.011 518.26 118.649L549.053 26.27C549.325 25.3617 549.893 24.5896 550.756 23.9538C551.619 23.3179 552.55 23 553.549 23H565.539C566.629 23 567.583 23.3179 568.4 23.9538C569.218 24.5896 569.808 25.4071 570.172 26.4063L590.337 89.0821L609.412 26.4063C609.775 25.4071 610.389 24.5896 611.251 23.9538C612.114 23.3179 613.045 23 614.045 23H625.081C626.807 23 628.124 23.6813 629.032 25.0438ZM509.676 26.4063L517.442 51.8854C517.987 53.4296 517.76 54.8602 516.761 56.1773C515.762 57.4944 514.445 58.153 512.81 58.153H502.046C500.956 58.153 499.979 57.835 499.116 57.1992C498.253 56.5634 497.686 55.7458 497.413 54.7467L489.511 29.2676C488.966 27.7234 489.193 26.2928 490.192 24.9757C491.191 23.6586 492.463 23 494.007 23H505.043C506.133 23 507.11 23.3179 507.973 23.9538C508.836 24.5896 509.403 25.4071 509.676 26.4063ZM717.337 104.479C718.7 104.479 719.835 104.955 720.743 105.909C721.652 106.863 722.106 108.021 722.106 109.384V119.33C722.106 120.602 721.652 121.714 720.743 122.668C719.835 123.622 718.7 124.099 717.337 124.099H650.029C648.757 124.099 647.644 123.622 646.691 122.668C645.737 121.714 645.26 120.602 645.26 119.33V109.384C645.26 108.021 645.737 106.863 646.691 105.909C647.644 104.955 648.757 104.479 650.029 104.479H717.337ZM650.029 83.3595C648.757 83.3595 647.644 82.8827 646.691 81.9289C645.737 80.9751 645.26 79.8624 645.26 78.5907V68.3718C645.26 67.1002 645.737 65.9874 646.691 65.0337C647.644 64.0799 648.757 63.603 650.029 63.603H711.206C712.568 63.603 713.726 64.0799 714.68 65.0337C715.634 65.9874 716.111 67.1002 716.111 68.3718V78.5907C716.111 79.8624 715.634 80.9751 714.68 81.9289C713.726 82.8827 712.568 83.3595 711.206 83.3595H650.029ZM717.337 23C718.7 23 719.835 23.4769 720.743 24.4306C721.652 25.3844 722.106 26.4971 722.106 27.7688V37.7152C722.106 39.0777 721.652 40.2359 720.743 41.1896C719.835 42.1434 718.7 42.6203 717.337 42.6203H650.029C648.757 42.6203 647.644 42.1434 646.691 41.1896C645.737 40.2359 645.26 39.0777 645.26 37.7152V27.7688C645.26 26.4971 645.737 25.3844 646.691 24.4306C647.644 23.4769 648.757 23 650.029 23H717.337ZM813.545 71.9144C818.268 74.8211 821.72 78.9995 823.9 84.4496C825.171 87.3563 825.807 90.9442 825.807 95.2134C825.807 101.844 824.036 107.408 820.493 111.904C816.951 116.401 811.773 119.739 804.961 121.919C800.691 123.372 795.65 124.099 789.837 124.099H746.372C745.101 124.099 743.988 123.622 743.034 122.668C742.08 121.714 741.604 120.602 741.604 119.33V109.52C741.604 108.157 742.08 106.999 743.034 106.045C743.988 105.092 745.101 104.615 746.372 104.615H790.927C796.195 104.615 800.101 103.661 802.644 101.754C804.824 99.9368 805.914 97.4616 805.914 94.3278C805.914 91.194 804.779 88.6279 802.508 86.6296C799.692 84.1771 795.468 82.9508 789.837 82.9508H746.372C745.101 82.9508 743.988 82.4739 743.034 81.5201C742.08 80.5664 741.604 79.4082 741.604 78.0457V68.6443C741.604 67.3727 742.08 66.2599 743.034 65.3062C743.988 64.3524 745.101 63.8755 746.372 63.8755H787.384C791.29 63.8755 794.333 63.1943 796.513 61.8318C798.057 60.9234 799.284 59.6063 800.192 57.8805C800.828 56.6088 801.146 55.1327 801.146 53.4523C801.146 51.7718 800.919 50.2504 800.464 48.8878C800.101 47.7978 799.465 46.7986 798.557 45.8903C796.558 43.6194 793.243 42.484 788.61 42.484H746.372C745.101 42.484 743.988 42.0071 743.034 41.0534C742.08 40.0996 741.604 38.9415 741.604 37.5789V27.7688C741.604 26.4971 742.08 25.3844 743.034 24.4306C743.988 23.4769 745.101 23 746.372 23H787.384C798.648 23 807.322 26.1792 813.408 32.5376C818.586 37.7152 821.175 44.2099 821.175 52.0216C821.175 60.3784 818.631 67.0093 813.545 71.9144Z" fill="#111827"/>
<path d="M294.702 149.596V160.294C295.594 159.777 296.586 159.432 297.679 159.259C298.484 159.115 299.52 159.043 300.785 159.043H306.911C308.608 159.043 309.931 158.655 310.88 157.879C311.887 157.045 312.39 155.793 312.39 154.125C312.39 152.543 311.858 151.364 310.794 150.588C309.874 149.926 308.579 149.596 306.911 149.596H294.702ZM308.464 171.986L304.539 163.746H300.785C299.606 163.746 298.571 163.818 297.679 163.961C296.586 164.163 295.594 164.508 294.702 164.997V177.076H290V144.893H306.911C308.896 144.893 310.65 145.267 312.174 146.015C313.699 146.763 314.878 147.827 315.712 149.207C316.604 150.674 317.049 152.4 317.049 154.384C317.049 156.8 316.402 158.785 315.108 160.338C313.814 161.891 311.988 162.969 309.629 163.573L312.131 168.707C312.85 169.771 313.411 170.519 313.814 170.95C314.303 171.497 314.77 171.863 315.216 172.05C315.662 172.237 316.244 172.331 316.963 172.331H317.438L318.473 172.288V177.076C316.805 177.076 315.568 177.019 314.763 176.904C313.411 176.674 312.261 176.228 311.312 175.566C310.19 174.761 309.241 173.568 308.464 171.986ZM354.064 160.769C354.064 158.468 353.475 156.383 352.296 154.514C351.174 152.702 349.642 151.278 347.701 150.243C345.76 149.207 343.653 148.69 341.381 148.69C339.023 148.69 336.873 149.222 334.931 150.286C332.99 151.35 331.473 152.802 330.38 154.643C329.258 156.57 328.698 158.713 328.698 161.071C328.698 163.314 329.301 165.385 330.509 167.283C331.66 169.066 333.206 170.483 335.147 171.533C337.088 172.582 339.188 173.107 341.446 173.107C343.703 173.107 345.803 172.561 347.744 171.468C349.686 170.375 351.217 168.908 352.339 167.068C353.489 165.141 354.064 163.041 354.064 160.769ZM358.724 161.028C358.724 164.134 357.918 166.996 356.308 169.613C354.755 172.115 352.648 174.107 349.988 175.588C347.327 177.069 344.458 177.81 341.381 177.81C338.189 177.81 335.255 177.033 332.58 175.48C329.963 173.985 327.907 171.928 326.411 169.311C324.858 166.636 324.081 163.703 324.081 160.51C324.081 157.433 324.901 154.6 326.54 152.011C328.094 149.538 330.2 147.575 332.861 146.123C335.521 144.67 338.375 143.944 341.424 143.944C344.559 143.944 347.464 144.706 350.139 146.231C352.756 147.726 354.827 149.754 356.351 152.313C357.933 154.988 358.724 157.893 358.724 161.028ZM380.078 177.81C377.059 177.81 374.463 177.285 372.292 176.235C370.12 175.185 368.466 173.668 367.33 171.684C366.194 169.699 365.626 167.326 365.626 164.565V144.893H370.285V164.565C370.285 167.326 371.134 169.44 372.831 170.907C374.528 172.374 376.944 173.107 380.078 173.107C383.213 173.107 385.629 172.374 387.326 170.907C389.023 169.44 389.872 167.326 389.872 164.565V144.893H394.531V164.565C394.531 167.326 393.963 169.699 392.827 171.684C391.691 173.668 390.037 175.185 387.865 176.235C385.694 177.285 383.098 177.81 380.078 177.81ZM427.534 149.639H416.188V177.076H411.615V149.639H400.139V144.893H427.534V149.639ZM438.276 164.177V172.374H458.121V177.076H433.573V144.893H456.222V149.639H438.276V159.389C439.167 158.871 440.16 158.526 441.253 158.353C442.058 158.209 443.093 158.137 444.359 158.137H451.391V162.926H444.359C443.179 162.926 442.144 162.998 441.253 163.142C440.16 163.343 439.167 163.688 438.276 164.177ZM505.188 160.769C505.188 158.468 504.598 156.383 503.419 154.514C502.297 152.702 500.766 151.278 498.824 150.243C496.883 149.207 494.776 148.69 492.504 148.69C490.146 148.69 487.996 149.222 486.054 150.286C484.113 151.35 482.596 152.802 481.503 154.643C480.381 156.57 479.821 158.713 479.821 161.071C479.821 163.314 480.425 165.385 481.633 167.283C482.783 169.066 484.329 170.483 486.27 171.533C488.212 172.582 490.311 173.107 492.569 173.107C494.827 173.107 496.926 172.561 498.867 171.468C500.809 170.375 502.34 168.908 503.462 167.068C504.612 165.141 505.188 163.041 505.188 160.769ZM509.847 161.028C509.847 164.134 509.041 166.996 507.431 169.613C505.878 172.115 503.771 174.107 501.111 175.588C498.45 177.069 495.581 177.81 492.504 177.81C489.312 177.81 486.378 177.033 483.703 175.48C481.086 173.985 479.03 171.928 477.534 169.311C475.981 166.636 475.205 163.703 475.205 160.51C475.205 157.433 476.024 154.6 477.664 152.011C479.217 149.538 481.323 147.575 483.984 146.123C486.644 144.67 489.499 143.944 492.547 143.944C495.682 143.944 498.587 144.706 501.262 146.231C503.879 147.726 505.95 149.754 507.474 152.313C509.056 154.988 509.847 157.893 509.847 161.028ZM521.883 164.177V177.076H517.181V144.893H539.83V149.639H521.883V159.389C522.775 158.871 523.767 158.526 524.86 158.353C525.665 158.209 526.701 158.137 527.966 158.137H534.998V162.926H527.966C526.787 162.926 525.751 162.998 524.86 163.142C523.767 163.343 522.775 163.688 521.883 164.177ZM565.283 149.639V172.374H572.574C574.587 172.374 576.399 171.856 578.01 170.821C579.534 169.814 580.728 168.463 581.59 166.766C582.453 165.069 582.885 163.214 582.885 161.2C582.885 159.101 582.475 157.174 581.655 155.42C580.835 153.665 579.663 152.27 578.139 151.235C576.5 150.171 574.616 149.639 572.488 149.639H565.283ZM558.122 149.639L556.051 144.893H572.444C575.292 144.893 577.895 145.627 580.253 147.093C582.525 148.503 584.323 150.43 585.646 152.874C586.969 155.319 587.63 157.979 587.63 160.855C587.63 163.012 587.206 165.148 586.357 167.262C585.509 169.376 584.337 171.224 582.841 172.805C581.403 174.358 579.865 175.466 578.225 176.127C576.644 176.76 574.76 177.076 572.574 177.076H560.667V149.639H558.122ZM599.666 149.596V160.294C600.558 159.777 601.55 159.432 602.643 159.259C603.448 159.115 604.484 159.043 605.749 159.043H611.875C613.572 159.043 614.895 158.655 615.844 157.879C616.851 157.045 617.354 155.793 617.354 154.125C617.354 152.543 616.822 151.364 615.758 150.588C614.838 149.926 613.543 149.596 611.875 149.596H599.666ZM613.428 171.986L609.503 163.746H605.749C604.57 163.746 603.535 163.818 602.643 163.961C601.55 164.163 600.558 164.508 599.666 164.997V177.076H594.964V144.893H611.875C613.86 144.893 615.614 145.267 617.139 146.015C618.663 146.763 619.842 147.827 620.676 149.207C621.568 150.674 622.013 152.4 622.013 154.384C622.013 156.8 621.366 158.785 620.072 160.338C618.778 161.891 616.952 162.969 614.593 163.573L617.095 168.707C617.814 169.771 618.375 170.519 618.778 170.95C619.267 171.497 619.734 171.863 620.18 172.05C620.626 172.237 621.208 172.331 621.927 172.331H622.402L623.437 172.288V177.076C621.769 177.076 620.532 177.019 619.727 176.904C618.375 176.674 617.225 176.228 616.276 175.566C615.154 174.761 614.205 173.568 613.428 171.986ZM635.905 164.177V172.374H655.75V177.076H631.203V144.893H653.852V149.639H635.905V159.389C636.796 158.871 637.789 158.526 638.882 158.353C639.687 158.209 640.722 158.137 641.988 158.137H649.02V162.926H641.988C640.809 162.926 639.773 162.998 638.882 163.142C637.789 163.343 636.796 163.688 635.905 164.177ZM673.351 148.301L671.583 144.332H676.759L692.247 177.076H686.984L684.87 172.374H675.077C673.236 172.374 671.583 172.547 670.116 172.892C668.822 173.208 667.743 173.625 666.88 174.143C666.104 174.603 665.586 175.077 665.327 175.566L664.507 177.076H659.417L673.351 148.301ZM676.803 167.628H682.756L675.724 154.039L668.606 169.44C669.239 168.894 670.202 168.463 671.496 168.146C672.963 167.801 674.732 167.628 676.803 167.628ZM725.768 154.945L714.767 168.103L703.852 154.945V177.076H699.236V149.423L695.483 144.893H701.566L714.724 160.683L728.054 144.893H734.137L730.384 149.423V177.076H725.768V154.945ZM765.846 167.283C765.846 169.383 765.213 171.252 763.948 172.892C762.711 174.445 761.007 175.653 758.835 176.516C756.664 177.378 754.212 177.81 751.48 177.81C748.978 177.81 746.547 177.227 744.189 176.063C741.831 174.898 739.846 173.28 738.235 171.209L741.6 168.06C744.39 171.425 747.683 173.107 751.48 173.107C753.148 173.107 754.672 172.906 756.053 172.503C757.577 172.043 758.756 171.396 759.59 170.562C760.539 169.642 761.014 168.549 761.014 167.283C761.014 165.759 760.539 164.609 759.59 163.832C758.785 163.171 757.591 162.739 756.01 162.538C755.089 162.423 753.579 162.365 751.48 162.365C747.626 162.365 744.685 161.661 742.657 160.251C740.63 158.842 739.616 156.771 739.616 154.039C739.616 152.313 740.126 150.674 741.148 149.121C742.169 147.568 743.571 146.331 745.354 145.411C747.194 144.433 749.236 143.944 751.48 143.944C754.011 143.944 756.297 144.332 758.339 145.109C760.525 145.943 762.553 147.252 764.422 149.035L761.488 152.486C759.734 151.077 758.138 150.092 756.7 149.531C755.262 148.97 753.522 148.69 751.48 148.69C750.301 148.69 749.2 148.934 748.179 149.423C747.158 149.912 746.346 150.566 745.742 151.386C745.138 152.206 744.836 153.076 744.836 153.996C744.836 156.469 747.123 157.706 751.695 157.706C755.348 157.706 758.239 158.08 760.367 158.828C762.38 159.547 763.818 160.64 764.681 162.106C765.457 163.401 765.846 165.126 765.846 167.283Z" fill="#111827"/>
</svg>
